#Comment line ignore any data following # character 
#Hierarchical Translation and Rotation (.htr) file 
[Header]	
#Header keywords are followed by a single value 
FileType HTR		#Single word string
DataType HTRS		#Translation followed by rotation and scale data
FileVersion 1		#integer
NumSegments 84		#integer
NumFrames 2		#integer
DataFrameRate 30		#integer, data frame rate in this file
EulerRotationOrder ZYX
CalibrationUnits mm
RotationUnits Degrees
GlobalAxisofGravity Y
BoneLengthAxis Y
ScaleFactor 1.00
[SegmentNames&Hierarchy]
#CHILD	PARENT
MASTER GLOBAL
root MASTER
chest root
L_mid_tent01 root
R_mid_tent01 root
spine01 root
Bip01_Neck chest
L_humerus chest
R_humerus chest
weapon_bone chest
Bip01_Head Bip01_Neck
eye_left_bone Bip01_Head
eye_right_bone Bip01_Head
L_forearm L_humerus
L_front_hand L_forearm
L_weapon_bone L_forearm
L_front_hand01_01 L_front_hand
L_front_hand02_01 L_front_hand
L_front_hand03_01 L_front_hand
L_front_hand01_02 L_front_hand01_01
L_front_hand02_02 L_front_hand02_01
L_front_hand03_02 L_front_hand03_01
R_forearm R_humerus
R_front_hand R_forearm
R_weapon_bone R_forearm
R_front_hand01_01 R_front_hand
R_front_hand02_01 R_front_hand
R_front_hand03_01 R_front_hand
R_front_hand01_02 R_front_hand01_01
R_front_hand02_02 R_front_hand02_01
R_front_hand03_02 R_front_hand03_01
null_rope01_connect L_mid_tent01
Rope1_Seg01 null_rope01_connect
Rope1_Seg02 Rope1_Seg01
Rope1_Seg03 Rope1_Seg02
Rope1_Seg04 Rope1_Seg03
Rope1_Seg05 Rope1_Seg04
Rope1_Seg06 Rope1_Seg05
Rope1_Seg07 Rope1_Seg06
Rope1_Seg09 Rope1_Seg07
L_mid_hand01 Rope1_Seg09
L_mid_hand02 Rope1_Seg09
L_mid_hand03 Rope1_Seg09
null_rope02_connect R_mid_tent01
Rope2_Seg01 null_rope02_connect
Rope2_Seg02 Rope2_Seg01
Rope2_Seg03 Rope2_Seg02
Rope2_Seg04 Rope2_Seg03
Rope2_Seg05 Rope2_Seg04
Rope2_Seg06 Rope2_Seg05
Rope2_Seg07 Rope2_Seg06
Rope2_Seg09 Rope2_Seg07
R_mid_hand01 Rope2_Seg09
R_mid_hand02 Rope2_Seg09
R_mid_hand03 Rope2_Seg09
spine02 spine01
spine03 spine02
pelvis spine03
null_rope03_connect pelvis
null_rope04_connect pelvis
Rope3_Seg01 null_rope03_connect
Rope3_Seg02 Rope3_Seg01
Rope3_Seg03 Rope3_Seg02
Rope3_Seg04 Rope3_Seg03
Rope3_Seg05 Rope3_Seg04
Rope3_Seg06 Rope3_Seg05
Rope3_Seg07 Rope3_Seg06
Rope3_Seg08 Rope3_Seg07
Rope3_Seg09 Rope3_Seg08
R_rear_hand01 Rope3_Seg09
R_rear_hand02 Rope3_Seg09
R_rear_hand03 Rope3_Seg09
Rope4_Seg01 null_rope04_connect
Rope4_Seg02 Rope4_Seg01
Rope4_Seg03 Rope4_Seg02
Rope4_Seg04 Rope4_Seg03
Rope4_Seg05 Rope4_Seg04
Rope4_Seg06 Rope4_Seg05
Rope4_Seg07 Rope4_Seg06
Rope4_Seg08 Rope4_Seg07
Rope4_Seg09 Rope4_Seg08
L_rear_hand01 Rope4_Seg09
L_rear_hand02 Rope4_Seg09
L_rear_hand03 Rope4_Seg09
[BasePosition]
#SegmentName Tx, Ty, Tz, Rx, Ry, Rz, BoneLength
MASTER 0.000000 0.000000 0.000000 -90.000000 0.000000 0.000000 10.000000 
root 0.000000 0.000000 0.000000 0.000000 0.000000 0.000000 10.000000 
chest 0.000000 0.000000 0.000000 0.000000 0.000000 0.000000 10.000000 
L_mid_tent01 0.000000 0.000000 0.000000 0.000000 0.000000 0.000000 10.000000 
R_mid_tent01 0.000000 0.000000 0.000000 0.000000 0.000000 0.000000 10.000000 
spine01 0.000000 0.000000 0.000000 0.000000 0.000000 0.000000 10.000000 
Bip01_Neck 0.000000 0.000000 0.000000 0.000000 0.000000 0.000000 10.000000 
L_humerus 0.000000 0.000000 0.000000 0.000000 0.000000 0.000000 10.000000 
R_humerus 0.000000 0.000000 0.000000 0.000000 0.000000 0.000000 10.000000 
weapon_bone 0.000000 0.000000 0.000000 0.000000 0.000000 0.000000 10.000000 
Bip01_Head 0.000000 0.000000 0.000000 0.000000 0.000000 0.000000 10.000000 
eye_left_bone 0.000000 0.000000 0.000000 0.000000 0.000000 0.000000 10.000000 
eye_right_bone 0.000000 0.000000 0.000000 0.000000 0.000000 0.000000 10.000000 
L_forearm 0.000000 0.000000 0.000000 0.000000 0.000000 0.000000 10.000000 
L_front_hand 0.000000 0.000000 0.000000 0.000000 0.000000 0.000000 10.000000 
L_weapon_bone 0.000000 0.000000 0.000000 0.000000 0.000000 0.000000 10.000000 
L_front_hand01_01 0.000000 0.000000 0.000000 0.000000 0.000000 0.000000 10.000000 
L_front_hand02_01 0.000000 0.000000 0.000000 0.000000 0.000000 0.000000 10.000000 
L_front_hand03_01 0.000000 0.000000 0.000000 0.000000 0.000000 0.000000 10.000000 
L_front_hand01_02 0.000000 0.000000 0.000000 0.000000 0.000000 0.000000 10.000000 
L_front_hand02_02 0.000000 0.000000 0.000000 0.000000 0.000000 0.000000 10.000000 
L_front_hand03_02 0.000000 0.000000 0.000000 0.000000 0.000000 0.000000 10.000000 
R_forearm 0.000000 0.000000 0.000000 0.000000 0.000000 0.000000 10.000000 
R_front_hand 0.000000 0.000000 0.000000 0.000000 0.000000 0.000000 10.000000 
R_weapon_bone 0.000000 0.000000 0.000000 0.000000 0.000000 0.000000 10.000000 
R_front_hand01_01 0.000000 0.000000 0.000000 0.000000 0.000000 0.000000 10.000000 
R_front_hand02_01 0.000000 0.000000 0.000000 0.000000 0.000000 0.000000 10.000000 
R_front_hand03_01 0.000000 0.000000 0.000000 0.000000 0.000000 0.000000 10.000000 
R_front_hand01_02 0.000000 0.000000 0.000000 0.000000 0.000000 0.000000 10.000000 
R_front_hand02_02 0.000000 0.000000 0.000000 0.000000 0.000000 0.000000 10.000000 
R_front_hand03_02 0.000000 0.000000 0.000000 0.000000 0.000000 0.000000 10.000000 
null_rope01_connect 0.000000 0.000000 0.000000 0.000000 0.000000 0.000000 10.000000 
Rope1_Seg01 0.000000 0.000000 0.000000 0.000000 0.000000 0.000000 10.000000 
Rope1_Seg02 0.000000 0.000000 0.000000 0.000000 0.000000 0.000000 10.000000 
Rope1_Seg03 0.000000 0.000000 0.000000 0.000000 0.000000 0.000000 10.000000 
Rope1_Seg04 0.000000 0.000000 0.000000 0.000000 0.000000 0.000000 10.000000 
Rope1_Seg05 0.000000 0.000000 0.000000 0.000000 0.000000 0.000000 10.000000 
Rope1_Seg06 0.000000 0.000000 0.000000 0.000000 0.000000 0.000000 10.000000 
Rope1_Seg07 0.000000 0.000000 0.000000 0.000000 0.000000 0.000000 10.000000 
Rope1_Seg09 0.000000 0.000000 0.000000 0.000000 0.000000 0.000000 10.000000 
L_mid_hand01 0.000000 0.000000 0.000000 0.000000 0.000000 0.000000 10.000000 
L_mid_hand02 0.000000 0.000000 0.000000 0.000000 0.000000 0.000000 10.000000 
L_mid_hand03 0.000000 0.000000 0.000000 0.000000 0.000000 0.000000 10.000000 
null_rope02_connect 0.000000 0.000000 0.000000 0.000000 0.000000 0.000000 10.000000 
Rope2_Seg01 0.000000 0.000000 0.000000 0.000000 0.000000 0.000000 10.000000 
Rope2_Seg02 0.000000 0.000000 0.000000 0.000000 0.000000 0.000000 10.000000 
Rope2_Seg03 0.000000 0.000000 0.000000 0.000000 0.000000 0.000000 10.000000 
Rope2_Seg04 0.000000 0.000000 0.000000 0.000000 0.000000 0.000000 10.000000 
Rope2_Seg05 0.000000 0.000000 0.000000 0.000000 0.000000 0.000000 10.000000 
Rope2_Seg06 0.000000 0.000000 0.000000 0.000000 0.000000 0.000000 10.000000 
Rope2_Seg07 0.000000 0.000000 0.000000 0.000000 0.000000 0.000000 10.000000 
Rope2_Seg09 0.000000 0.000000 0.000000 0.000000 0.000000 0.000000 10.000000 
R_mid_hand01 0.000000 0.000000 0.000000 0.000000 0.000000 0.000000 10.000000 
R_mid_hand02 0.000000 0.000000 0.000000 0.000000 0.000000 0.000000 10.000000 
R_mid_hand03 0.000000 0.000000 0.000000 0.000000 0.000000 0.000000 10.000000 
spine02 0.000000 0.000000 0.000000 0.000000 0.000000 0.000000 10.000000 
spine03 0.000000 0.000000 0.000000 0.000000 0.000000 0.000000 10.000000 
pelvis 0.000000 0.000000 0.000000 0.000000 0.000000 0.000000 10.000000 
null_rope03_connect 0.000000 0.000000 0.000000 0.000000 0.000000 0.000000 10.000000 
null_rope04_connect 0.000000 0.000000 0.000000 0.000000 0.000000 0.000000 10.000000 
Rope3_Seg01 0.000000 0.000000 0.000000 0.000000 0.000000 0.000000 10.000000 
Rope3_Seg02 0.000000 0.000000 0.000000 0.000000 0.000000 0.000000 10.000000 
Rope3_Seg03 0.000000 0.000000 0.000000 0.000000 0.000000 0.000000 10.000000 
Rope3_Seg04 0.000000 0.000000 0.000000 0.000000 0.000000 0.000000 10.000000 
Rope3_Seg05 0.000000 0.000000 0.000000 0.000000 0.000000 0.000000 10.000000 
Rope3_Seg06 0.000000 0.000000 0.000000 0.000000 0.000000 0.000000 10.000000 
Rope3_Seg07 0.000000 0.000000 0.000000 0.000000 0.000000 0.000000 10.000000 
Rope3_Seg08 0.000000 0.000000 0.000000 0.000000 0.000000 0.000000 10.000000 
Rope3_Seg09 0.000000 0.000000 0.000000 0.000000 0.000000 0.000000 10.000000 
R_rear_hand01 0.000000 0.000000 0.000000 0.000000 0.000000 0.000000 10.000000 
R_rear_hand02 0.000000 0.000000 0.000000 0.000000 0.000000 0.000000 10.000000 
R_rear_hand03 0.000000 0.000000 0.000000 0.000000 0.000000 0.000000 10.000000 
Rope4_Seg01 0.000000 0.000000 0.000000 0.000000 0.000000 0.000000 10.000000 
Rope4_Seg02 0.000000 0.000000 0.000000 0.000000 0.000000 0.000000 10.000000 
Rope4_Seg03 0.000000 0.000000 0.000000 0.000000 0.000000 0.000000 10.000000 
Rope4_Seg04 0.000000 0.000000 0.000000 0.000000 0.000000 0.000000 10.000000 
Rope4_Seg05 0.000000 0.000000 0.000000 0.000000 0.000000 0.000000 10.000000 
Rope4_Seg06 0.000000 0.000000 0.000000 0.000000 0.000000 0.000000 10.000000 
Rope4_Seg07 0.000000 0.000000 0.000000 0.000000 0.000000 0.000000 10.000000 
Rope4_Seg08 0.000000 0.000000 0.000000 0.000000 0.000000 0.000000 10.000000 
Rope4_Seg09 0.000000 0.000000 0.000000 0.000000 0.000000 0.000000 10.000000 
L_rear_hand01 0.000000 0.000000 0.000000 0.000000 0.000000 0.000000 10.000000 
L_rear_hand02 0.000000 0.000000 0.000000 0.000000 0.000000 0.000000 10.000000 
L_rear_hand03 0.000000 0.000000 0.000000 0.000000 0.000000 0.000000 10.000000 
#Beginning of Data. Separated by tabs
#Fr	Tx	Ty	Tz	Rx	Ry	Rz	SF
[MASTER]
9 637.674377 -39.847069 1041.749146 0.001660 0.001660 0.001660 1222.071045
10 823.183777 -41.695038 1237.720215 0.001660 0.001660 0.001660 1487.051147
[root]
9 100.027939 13.719851 1224.285522 -41.061573 -12.802920 -104.227921 1228.441650
10 93.415070 7.097344 1013.934631 -31.546007 -8.968128 -107.138817 1018.253479
[chest]
9 -84.512650 -34.090519 0.000000 11.370425 -3.178023 -174.737320 91.129311
10 -84.512650 -34.090519 0.000000 19.112154 2.620749 -174.552292 91.129311
[L_mid_tent01]
9 27.299040 22.179230 -249.918762 -2.000526 21.339958 67.299889 252.381729
10 27.299034 22.179245 -249.918777 -1.283848 21.107357 70.920654 252.381744
[R_mid_tent01]
9 23.228794 24.509907 226.238495 171.176453 -24.159443 63.585236 228.744751
10 23.228794 24.509907 226.238495 171.210388 -22.654079 65.336426 228.744751
[spine01]
9 -0.361383 -0.195265 0.000000 0.001857 0.001437 14.529466 0.410763
10 -0.361383 -0.195265 0.000000 0.001844 0.001453 13.499671 0.410763
[Bip01_Neck]
9 165.484543 71.581718 0.000119 176.643677 -1.657967 43.431911 180.302734
10 165.484543 71.581718 0.000119 176.643677 -1.657967 43.431911 180.302734
[L_humerus]
9 -13.983130 -135.272980 -120.471481 172.939270 4.789375 -144.475281 181.680161
10 -13.983130 -135.272980 -120.471481 176.250656 -1.196469 -147.074829 181.680161
[R_humerus]
9 -13.983309 -135.273102 125.287651 177.824463 -3.504131 -138.099548 184.909012
10 -13.983309 -135.273102 125.287651 175.896469 2.599221 -139.221817 184.909012
[weapon_bone]
9 235.964890 -300.705902 0.000000 0.000000 -89.951546 -128.212341 382.234833
10 235.964890 -300.705902 0.000000 0.000000 -89.951546 -128.212341 382.234833
[Bip01_Head]
9 213.674088 185.076447 20.027464 16.239420 -0.961533 -43.896641 283.391968
10 213.637924 185.176773 18.730772 17.151220 -1.457616 -43.900333 283.341583
[eye_left_bone]
9 -24.626970 125.451866 -64.772606 0.000000 -90.000000 -99.840431 143.318359
10 -24.626970 125.451866 -64.772606 0.000000 -90.000000 -99.840431 143.318359
[eye_right_bone]
9 -24.626970 125.451866 64.327362 0.000000 -89.965736 80.156380 143.117676
10 -24.626970 125.451866 64.327362 0.000000 -89.965736 80.156380 143.117676
[L_forearm]
9 322.776093 0.000000 -0.000119 0.000428 -0.002308 -110.999817 322.776093
10 322.776093 0.000000 -0.000119 0.000429 -0.002308 -111.068802 322.776093
[L_front_hand]
9 241.149185 -0.042021 -3.300071 -178.667953 -1.835447 -27.422350 241.171753
10 241.149185 -0.042021 -3.300071 -178.667953 -1.835447 -27.422350 241.171753
[L_weapon_bone]
9 156.183838 0.000000 0.000000 0.000014 0.000007 0.000001 156.183838
10 156.183838 0.000000 0.000000 0.000014 0.000007 0.000001 156.183838
[L_front_hand01_01]
9 86.095154 20.947098 -0.655860 -0.289102 -0.524108 66.611084 88.609184
10 86.095154 20.947098 -0.655860 -0.279531 -0.529728 65.431473 88.609184
[L_front_hand02_01]
9 86.935165 -11.437475 24.513514 142.580521 -55.269005 -47.395390 91.046425
10 86.935165 -11.437475 24.513514 141.258118 -54.537659 -45.777599 91.046425
[L_front_hand03_01]
9 86.637497 -14.123976 -20.424902 -142.879868 53.494274 -49.391991 90.126129
10 86.637497 -14.123976 -20.424902 -141.638611 52.767319 -47.837204 90.126129
[L_front_hand01_02]
9 71.020905 -0.000179 0.000030 0.000315 -0.002326 -105.433174 71.020905
10 71.020905 -0.000179 0.000030 0.000315 -0.002326 -105.412971 71.020905
[L_front_hand02_02]
9 71.020927 -0.000119 0.000060 0.000315 -0.002326 -105.433174 71.020927
10 71.020927 -0.000119 0.000060 0.000315 -0.002326 -105.412971 71.020927
[L_front_hand03_02]
9 71.020905 -0.000060 0.000060 0.000315 -0.002326 -105.433174 71.020905
10 71.020905 -0.000060 0.000060 0.000315 -0.002326 -105.412971 71.020905
[R_forearm]
9 322.776428 -0.000060 0.000030 0.201177 0.067961 -109.655846 322.776428
10 322.776428 -0.000060 0.000030 0.201131 0.068099 -109.734482 322.776428
[R_front_hand]
9 238.847015 -0.006795 2.210259 -2.635298 -10.645461 -26.312506 238.857239
10 238.847015 -0.006795 2.210259 -2.635298 -10.645461 -26.312506 238.857239
[R_weapon_bone]
9 155.664093 0.002503 -0.000030 0.003487 0.001180 -90.988930 155.664078
10 155.664093 0.002503 -0.000030 0.003487 0.001180 -90.988930 155.664078
[R_front_hand01_01]
9 87.624611 14.231146 22.918642 -141.947067 -54.924732 46.726727 91.683487
10 87.624611 14.231146 22.918642 -140.102493 -53.853168 44.460335 91.683487
[R_front_hand02_01]
9 89.356956 14.367283 -19.491137 142.634140 53.329136 49.315861 92.579636
10 89.356956 14.367283 -19.491137 140.872437 52.278004 47.106758 92.579636
[R_front_hand03_01]
9 87.286232 -22.307278 -0.143439 0.092230 -0.445770 -66.286453 90.091743
10 87.286232 -22.307278 -0.143439 0.074609 -0.448192 -64.587509 90.091743
[R_front_hand01_02]
9 71.020905 0.000060 0.000119 0.002323 -0.000334 106.381714 71.020905
10 71.020905 0.000060 0.000119 0.002323 -0.000334 106.381714 71.020905
[R_front_hand02_02]
9 71.020844 -0.000030 -0.000119 0.002323 -0.000334 106.381714 71.020836
10 71.020844 -0.000030 -0.000119 0.002323 -0.000334 106.381714 71.020836
[R_front_hand03_02]
9 71.020905 0.000000 0.000030 0.002323 -0.000334 106.381714 71.020905
10 71.020905 0.000000 0.000030 0.002323 -0.000334 106.381714 71.020905
[null_rope01_connect]
9 328.732483 0.000000 -0.000238 -23.972387 -57.949928 60.100494 328.732483
10 328.732483 0.000000 -0.000238 -20.401232 -48.539513 51.300014 328.732483
[Rope1_Seg01]
9 0.000000 0.000000 0.000000 -143.258255 76.673271 49.916592 0.000000
10 0.000000 0.000000 0.000000 -112.919060 73.458969 75.621910 0.000000
[Rope1_Seg02]
9 139.999863 -0.000179 0.000000 -5.371335 12.148513 -7.610112 139.999863
10 139.999863 -0.000179 0.000000 -9.027376 16.240192 -10.981745 139.999863
[Rope1_Seg03]
9 139.999924 0.000060 -0.000060 -11.562237 13.366833 -7.050332 139.999924
10 139.999924 0.000060 -0.000060 -25.005718 16.116282 -7.461373 139.999924
[Rope1_Seg04]
9 139.999924 -0.000060 -0.000119 -20.317942 11.055250 -3.650868 139.999924
10 139.999924 -0.000060 -0.000119 -48.199646 12.543252 -0.131891 139.999924
[Rope1_Seg05]
9 139.999832 0.000119 -0.000060 -46.830418 12.240174 1.218266 139.999832
10 139.999832 0.000119 -0.000060 -50.290852 11.448824 9.757367 139.999832
[Rope1_Seg06]
9 139.999954 0.000119 -0.000060 -39.414513 8.571112 12.366493 139.999954
10 139.999954 0.000119 -0.000060 -17.807238 0.153152 15.190561 139.999954
[Rope1_Seg07]
9 139.999985 0.000060 0.000000 -11.318614 -0.896163 10.806629 139.999985
10 139.999985 0.000060 0.000000 -4.576787 -2.866388 8.456430 139.999985
[Rope1_Seg09]
9 121.602913 0.000119 -0.000089 -89.793175 -1.359789 0.847147 121.602913
10 121.602913 0.000119 -0.000089 -89.793175 -1.359789 0.847147 121.602913
[L_mid_hand01]
9 103.859421 1.038730 8.195221 110.016693 -43.583382 -14.630747 104.187431
10 103.859421 1.038730 8.195221 109.301483 -41.408253 -13.576799 104.187431
[L_mid_hand02]
9 105.572853 -4.139662 -10.864139 -148.402451 33.171711 -41.059570 106.211075
10 105.572853 -4.139662 -10.864139 -147.153671 31.943630 -38.737034 106.211075
[L_mid_hand03]
9 104.641464 17.579376 -3.913581 -13.575854 13.082141 47.042400 106.179977
10 104.641464 17.579376 -3.913581 -14.087292 12.528420 44.741467 106.179977
[null_rope02_connect]
9 328.732849 0.000179 -0.000119 -153.088440 28.866213 -31.320663 328.732849
10 328.732849 0.000179 -0.000119 -158.072525 20.811852 -35.777004 328.732849
[Rope2_Seg01]
9 0.000027 0.000135 0.000163 176.992889 -66.067024 -21.067205 0.000213
10 0.000023 0.000137 0.000183 -67.220581 -84.286362 -129.155396 0.000230
[Rope2_Seg02]
9 139.999741 -0.000060 -0.000119 -6.952719 -1.745983 -8.791142 139.999756
10 139.999741 -0.000060 -0.000119 -3.482938 -7.441782 -8.228564 139.999756
[Rope2_Seg03]
9 140.000107 0.000030 0.000000 -4.632397 -1.142043 -6.331016 140.000107
10 140.000107 0.000030 0.000000 -5.176782 -8.963994 -10.793287 140.000107
[Rope2_Seg04]
9 139.999802 0.000000 -0.000060 -4.549417 -0.303479 -7.172876 139.999802
10 139.999802 0.000000 -0.000060 -6.302078 -8.859830 -11.584237 139.999802
[Rope2_Seg05]
9 139.999985 -0.000060 0.000119 -8.852821 5.390722 -20.975788 139.999985
10 139.999985 -0.000060 0.000119 -8.563234 -4.812615 -19.851122 139.999985
[Rope2_Seg06]
9 139.999893 -0.000030 -0.000119 -3.105371 5.981431 -14.121504 139.999893
10 139.999893 -0.000030 -0.000119 -5.060615 0.027557 -16.392084 139.999893
[Rope2_Seg07]
9 139.999893 0.000060 -0.000060 -0.590534 3.078644 -6.721953 139.999893
10 139.999893 0.000060 -0.000060 -1.829353 0.283623 -8.419194 139.999893
[Rope2_Seg09]
9 121.338966 0.000089 -0.000060 33.793236 -1.359788 -0.847141 121.338966
10 121.338966 0.000089 -0.000060 33.793236 -1.359788 -0.847141 121.338966
[R_mid_hand01]
9 104.680779 11.144459 -10.335981 -29.481638 39.038574 50.818577 105.778534
10 104.680779 11.144459 -10.335981 -31.399162 37.614391 47.725441 105.778534
[R_mid_hand02]
9 104.070427 2.443552 8.231699 64.792824 -54.379646 21.475639 104.424065
10 104.070427 2.443552 8.231699 66.339699 -51.820030 19.540783 104.424065
[R_mid_hand03]
9 106.028137 -11.221827 -5.996406 -172.901596 14.168235 -60.324333 106.788818
10 106.028137 -11.221827 -5.996406 -172.206848 13.802570 -57.446243 106.788818
[spine02]
9 129.756927 0.001550 0.000119 0.518956 -4.026388 -15.194307 129.756927
10 129.756927 0.001550 0.000119 0.528083 -4.025184 -15.314452 129.756927
[spine03]
9 78.614067 0.081187 -4.898993 2.019453 3.769911 18.353506 78.766602
10 78.614067 0.081131 -4.898993 2.014450 3.771673 18.275675 78.766602
[pelvis]
9 169.435242 0.051022 0.000000 -0.042630 -0.183488 9.051860 169.435257
10 169.435242 0.051022 0.000000 -0.040403 -0.183991 7.663367 169.435257
[null_rope03_connect]
9 -1.257226 -2.466202 137.391083 0.617763 -41.448513 81.907928 137.418976
10 -1.257226 -2.466202 137.391083 -1.278960 -31.409424 85.793282 137.418976
[null_rope04_connect]
9 -1.259640 -2.480268 -137.844437 0.617763 -41.448513 81.907928 137.872513
10 -1.259640 -2.480268 -137.844437 -1.278960 -31.409424 85.793282 137.872513
[Rope3_Seg01]
9 0.000000 0.000000 0.000000 13.610985 -19.843779 -65.112610 0.000000
10 0.000000 0.000000 0.000000 16.477795 -31.240114 -72.107727 0.000000
[Rope3_Seg02]
9 139.999924 -0.000119 0.000060 -6.897563 -14.633108 20.814528 139.999924
10 139.999924 -0.000119 0.000060 -2.052885 -10.670953 18.654781 139.999924
[Rope3_Seg03]
9 139.999924 -0.000119 0.000119 -8.198049 -16.808374 15.091708 139.999924
10 139.999924 -0.000119 0.000119 -4.572634 -13.439641 15.198180 139.999924
[Rope3_Seg04]
9 139.999924 0.000119 0.000000 -4.207440 -12.385897 6.001145 139.999924
10 139.999924 0.000119 0.000000 -3.259843 -10.225053 8.227763 139.999924
[Rope3_Seg05]
9 139.999924 -0.000238 0.000060 -0.653248 1.326319 7.205330 139.999924
10 139.999924 -0.000238 0.000060 0.243776 5.660141 11.202610 139.999924
[Rope3_Seg06]
9 139.999893 -0.000119 -0.000060 4.623086 14.222765 16.466593 139.999893
10 139.999893 -0.000119 -0.000060 7.317475 17.056021 17.983232 139.999893
[Rope3_Seg07]
9 139.999771 0.000060 -0.000119 9.342678 15.522961 17.709400 139.999771
10 139.999771 0.000060 -0.000119 5.823244 10.142739 10.868691 139.999771
[Rope3_Seg08]
9 139.999985 -0.000060 0.000000 10.477823 8.764470 8.897535 139.999985
10 139.999985 -0.000060 0.000000 5.115077 5.696449 5.492444 139.999985
[Rope3_Seg09]
9 90.185997 -0.000179 -0.000060 89.793228 -1.359877 -0.847183 90.185997
10 90.185997 -0.000179 -0.000060 89.793228 -1.359877 -0.847183 90.185997
[R_rear_hand01]
9 103.366196 -6.073594 -10.757982 -169.405167 22.402496 -53.260654 104.101845
10 103.366196 -6.073594 -10.757982 -168.130341 21.777140 -49.871906 104.101845
[R_rear_hand02]
9 100.509819 12.039542 -7.992327 -25.038765 30.595232 50.476662 101.543350
10 100.509819 12.039542 -7.992327 -26.694445 29.195726 47.151855 101.543350
[R_rear_hand03]
9 101.539970 5.215704 5.435467 80.458870 -53.275658 11.535563 101.819031
10 101.539970 5.215704 5.435467 81.113556 -50.109848 10.702383 101.819031
[Rope4_Seg01]
9 0.000077 -0.000038 -0.000153 -95.210190 42.430676 -90.730003 0.000175
10 0.000088 -0.000038 -0.000153 -104.720276 54.715603 -101.534554 0.000180
[Rope4_Seg02]
9 139.999985 0.000060 0.000119 0.653919 -13.003612 -4.235202 139.999985
10 139.999985 0.000060 0.000119 1.011501 -12.028418 -7.540150 139.999985
[Rope4_Seg03]
9 139.999924 0.000000 -0.000238 0.980686 -12.141620 -3.963009 139.999924
10 139.999924 0.000000 -0.000238 0.549753 -11.560077 -7.470936 139.999924
[Rope4_Seg04]
9 139.999985 0.000000 0.000119 0.764137 -8.861913 -3.242684 139.999985
10 139.999985 0.000000 0.000119 -0.767295 -7.102012 -7.120772 139.999985
[Rope4_Seg05]
9 139.999802 -0.000060 -0.000119 1.361417 -7.929482 -2.090835 139.999802
10 139.999802 -0.000060 -0.000119 0.208197 -7.756510 -3.849918 139.999802
[Rope4_Seg06]
9 139.999924 0.000000 0.000060 3.340002 -9.877888 -1.513721 139.999924
10 139.999924 0.000000 0.000060 3.836133 -13.746758 -2.210446 139.999924
[Rope4_Seg07]
9 139.999802 0.000000 0.000000 6.327135 -10.719011 -0.886023 139.999802
10 139.999802 0.000000 0.000000 12.198503 -18.241283 -0.981753 139.999802
[Rope4_Seg08]
9 139.999924 0.000000 0.000119 5.194876 -7.043863 0.023968 139.999924
10 139.999924 0.000000 0.000119 14.972234 -11.201939 1.081242 139.999924
[Rope4_Seg09]
9 90.185791 0.000060 0.000060 -135.617828 2.228885 0.850567 90.185791
10 90.185791 0.000060 0.000060 -135.617828 2.228885 0.850567 90.185791
[L_rear_hand01]
9 101.696655 -8.392275 -7.654577 -31.553307 -23.761135 143.711090 102.329041
10 101.696655 -8.392275 -7.654577 -31.194277 -24.256094 142.819397 102.329041
[L_rear_hand02]
9 102.726799 -1.568258 5.773216 82.664513 39.085827 171.495636 102.900848
10 102.726799 -1.568258 5.773216 82.562164 40.032185 171.334641 102.900848
[L_rear_hand03]
9 104.552910 9.721220 -10.420293 -164.089569 -19.094524 -141.662735 105.519653
10 104.552910 9.721220 -10.420293 -164.408707 -19.357925 -140.691956 105.519653
